<svg width="16" height="16" viewBox="0 0 16 16" fill="none" xmlns="http://www.w3.org/2000/svg">
<path d="M14.6664 3.64196L13.3338 1.33618H2.67008L1.33748 3.64196L0.00488281 5.95363L8.00243 15.2239L16 5.95363L14.6664 3.64196Z" fill="#A0CEFF"/>
<path d="M2.67008 5.95362H0.00488281L1.33748 3.64196L2.67008 1.33618L4.00366 3.64196L5.33134 5.95362H2.67008Z" fill="#5AABFF"/>
<path d="M8.00249 5.95264H10.6687L9.33509 10.5917L8.00249 15.2268L6.66989 10.5917L5.33435 5.95264H8.00249Z" fill="#439FFF"/>
<path d="M2.6701 5.95264H5.33137L7.99755 15.2229L0 5.95264H2.6701Z" fill="#2E94FF"/>
<path d="M13.3338 5.95264H16L8.00244 15.2229L10.6686 5.95264H13.3338Z" fill="#2E94FF"/>
<path d="M8.00249 5.95364H5.33435L6.66989 3.64197L8.00249 1.33325L9.33509 3.64197L10.6677 5.95069L8.00249 5.95364Z" fill="#5AABFF"/>
<path d="M13.3338 5.95364H10.6676L12.0002 3.64197L13.3328 1.33325L14.6654 3.64197L15.998 5.95069L13.3338 5.95364Z" fill="#5AABFF"/>
<path d="M10.6676 1.33618H13.3338L12.0012 3.64196L10.6676 5.95362L9.33504 3.64196L8.00244 1.33618H10.6676Z" fill="#8CC4FF"/>
<path d="M5.33229 1.33618H7.99847L6.66882 3.64196L5.33229 5.95362L4.00264 3.64196L2.67004 1.33618H5.33229Z" fill="#8CC4FF"/>
</svg>
