<svg width="136" height="22" viewBox="0 0 136 22" fill="none" xmlns="http://www.w3.org/2000/svg">
<path d="M44.1899 11.9208C44.1802 11.9293 44.1718 11.9427 44.1633 11.9512C44.1633 13.2138 44.1332 13.8135 44.1115 14.6005C44.0862 15.6806 43.5339 16.5467 42.5438 16.5467C41.9493 16.5467 41.4489 16.1732 41.174 15.5736C41.1592 15.5459 41.1459 15.5175 41.1342 15.4884C41.0178 15.2094 40.9524 14.9115 40.9412 14.609C40.8761 13.2357 40.9063 12.6518 40.9063 11.8697C40.9063 11.8697 41.1293 10.1424 41.268 9.61938L44.1899 11.9208Z" fill="#FF1C7C"/>
<path d="M48.6673 4.68212C48.6191 4.78429 47.8232 6.33639 47.582 6.72807C47.2974 7.2426 46.0144 9.43694 45.2233 10.6059C44.8615 11.1447 44.5251 11.6714 44.2055 12.0193L41.2644 9.6194C41.3199 9.53061 41.7166 7.51142 41.7166 7.51142C41.7166 7.51142 41.9747 8.15001 42.5149 8.1342C42.8574 8.1342 43.0431 7.90309 43.2553 7.58805C43.7799 6.79862 44.255 5.97634 44.7204 5.15529C45.0436 4.58116 45.3463 3.99364 45.7153 3.44627C46.0252 2.9877 46.4485 2.52426 47.0249 2.42573C47.3227 2.38016 47.6273 2.42267 47.9016 2.5481C48.176 2.67353 48.4084 2.8765 48.5708 3.13245C48.7052 3.3654 48.7839 3.62676 48.8007 3.89578C48.8174 4.16479 48.7718 4.43403 48.6673 4.68212V4.68212Z" fill="#FF1C7C"/>
<path d="M21.8342 14.8511C21.8342 15.7743 21.0853 16.5942 19.959 16.5942H18.6531C18.6531 16.5942 18.4493 16.5942 17.9295 16.5784C15.6287 16.509 16.374 11.5596 16.374 11.6824C16.374 13.3598 17.7282 13.2138 18.5831 13.2224C18.7821 13.2224 19.7516 13.2297 20.0664 13.237C20.6392 13.2516 20.9105 13.3477 21.2493 13.6019C21.6376 13.8877 21.8342 14.4509 21.8342 14.8511Z" fill="#FF1C7C"/>
<path d="M97.4932 14.9496C97.9677 15.4436 98.5347 15.8377 99.1613 16.1092C99.7878 16.3806 100.462 16.5239 101.143 16.5309H101.209C102.585 16.539 103.909 15.995 104.888 15.0187C105.867 14.0423 106.422 12.7136 106.43 11.3248C106.438 9.93598 105.899 8.60085 104.931 7.61311C103.963 6.62536 102.646 6.06593 101.269 6.05786H101.205C99.8414 6.06406 98.5346 6.60931 97.5651 7.57653C96.5956 8.54376 96.0408 9.85585 96.0196 11.2311C96.0094 11.9184 96.1343 12.601 96.3872 13.2392C96.6402 13.8775 97.0161 14.4588 97.4932 14.9496ZM99.1127 9.12801C99.4647 8.78166 99.8957 8.52789 100.368 8.38903C100.84 8.25018 101.339 8.23049 101.82 8.3317C102.301 8.43291 102.751 8.65192 103.128 8.96945C103.506 9.28699 103.801 9.69331 103.986 10.1527C104.172 10.612 104.242 11.1103 104.192 11.6038C104.142 12.0972 103.972 12.5705 103.698 12.9822C103.424 13.3939 103.053 13.7313 102.619 13.9647C102.186 14.1981 101.701 14.3204 101.21 14.3207C100.813 14.319 100.421 14.2383 100.055 14.0833C99.6895 13.9284 99.3577 13.7021 99.0789 13.4176C98.8001 13.1331 98.5797 12.7958 98.4303 12.4252C98.2809 12.0546 98.2054 11.6579 98.2083 11.2579C98.2119 10.8602 98.2937 10.4671 98.449 10.1015C98.6042 9.73595 98.8298 9.40504 99.1127 9.12801Z" fill="#2D2D2D"/>
<path d="M28.1626 9.55371C28.1626 9.55371 27.1641 12.737 27.3185 12.7394C28.2735 12.7516 32.9499 12.7868 33.1417 12.7868C33.2176 12.7868 32.3651 10.567 32.0009 9.55371H28.1626Z" fill="#FF1C7C"/>
<path d="M109.061 14.8948C109.536 15.3886 110.103 15.7827 110.729 16.0541C111.356 16.3255 112.03 16.4689 112.711 16.4761H112.777C114.153 16.4842 115.477 15.9402 116.456 14.9639C117.435 13.9875 117.99 12.6588 117.998 11.27C118.006 9.88117 117.467 8.54604 116.499 7.5583C115.531 6.57056 114.214 6.01112 112.837 6.00305H112.773C111.409 6.00925 110.103 6.5545 109.133 7.52172C108.164 8.48895 107.609 9.80104 107.588 11.1763C107.577 11.8636 107.702 12.5462 107.955 13.1845C108.208 13.8228 108.584 14.4041 109.061 14.8948V14.8948ZM110.678 9.0732C111.031 8.72773 111.462 8.47483 111.934 8.33673C112.405 8.19863 112.904 8.17954 113.385 8.28116C113.866 8.38277 114.314 8.60197 114.692 8.9195C115.069 9.23702 115.363 9.64315 115.548 10.1022C115.734 10.5613 115.804 11.0592 115.754 11.5522C115.704 12.0453 115.534 12.5183 115.261 12.9298C114.987 13.3414 114.617 13.6788 114.184 13.9124C113.75 14.146 113.267 14.2686 112.775 14.2696C112.379 14.2678 111.986 14.1872 111.621 14.0322C111.255 13.8772 110.923 13.651 110.644 13.3664C110.366 13.0819 110.145 12.7447 109.996 12.3741C109.846 12.0035 109.771 11.6068 109.774 11.2067C109.777 10.8084 109.859 10.4147 110.014 10.0484C110.169 9.68216 110.395 9.35067 110.678 9.0732Z" fill="#2D2D2D"/>
<path d="M73.8533 20H74.5539C75.5355 20 76.382 19.764 77.0706 19.2969C77.7591 18.8298 78.35 18.0051 78.8251 16.8459L82.702 8.08794C82.8242 7.80437 82.8297 7.48346 82.7173 7.19581C82.6049 6.90815 82.3838 6.67732 82.1027 6.55409C81.8216 6.43085 81.5034 6.42531 81.2183 6.53868C80.9331 6.65206 80.7043 6.87506 80.5821 7.15863L77.8387 13.704L74.9446 7.11362C74.884 6.9697 74.7954 6.83949 74.6841 6.73068C74.5728 6.62187 74.441 6.53667 74.2964 6.48011C74.1519 6.42355 73.9976 6.39678 73.8427 6.40139C73.6878 6.40599 73.5353 6.44187 73.3943 6.50691C73.2534 6.57195 73.1267 6.66483 73.022 6.78006C72.9172 6.8953 72.8363 7.03054 72.7843 7.17781C72.7322 7.32508 72.7099 7.48139 72.7187 7.6375C72.7275 7.79362 72.7672 7.94636 72.8355 8.08672L76.6377 16.1951L76.4423 16.7096C76.2144 17.2096 76.0299 17.4042 75.7272 17.6317C75.3293 17.9309 74.7095 17.9637 74.461 17.9637H73.8448C73.5794 17.9669 73.3259 18.0757 73.1394 18.2663C72.9529 18.4569 72.8485 18.714 72.8488 18.9818C72.8497 19.2506 72.9563 19.508 73.145 19.6977C73.3337 19.8874 73.5893 19.9939 73.8557 19.9939L73.8533 20Z" fill="#2D2D2D"/>
<path d="M71.708 10.7421C71.6153 9.90095 71.3657 9.08501 70.9724 8.33736C70.595 7.62482 70.0289 7.03193 69.3372 6.6247C68.5432 6.16748 67.6419 5.9339 66.7277 5.94839C65.7791 5.93499 64.8443 6.17953 64.0217 6.65632C63.2873 7.11626 62.6787 7.7544 62.2515 8.51252C61.7764 9.32871 61.6039 10.1522 61.6039 11.118C61.585 12.0817 61.8286 13.0321 62.3082 13.8658C62.7368 14.6356 63.3857 15.2571 64.17 15.649C65.09 16.1431 66.1148 16.4052 67.157 16.4129C68.5281 16.4129 69.8799 15.9969 70.8651 15.272C70.9825 15.1852 71.0805 15.0745 71.1528 14.9471C71.225 14.8197 71.27 14.6784 71.2847 14.5324C71.2991 14.385 71.2827 14.2363 71.2365 14.0957C71.1904 13.9551 71.1157 13.8259 71.017 13.7162C70.8495 13.5318 70.6219 13.4141 70.3757 13.3844C70.1295 13.3548 69.8808 13.4151 69.6749 13.5544C69.3732 13.7556 69.0572 13.9341 68.7295 14.0884C68.2535 14.2809 67.7458 14.3812 67.233 14.384C66.4722 14.3826 65.7304 14.1438 65.1094 13.7004C64.55 13.308 64.1635 12.7118 64.0314 12.0376C64.0181 11.957 64.0088 11.8758 64.0036 11.7943H70.7747C70.9065 11.7939 71.0369 11.7655 71.1572 11.711C71.2774 11.6564 71.385 11.577 71.4728 11.4777C71.5606 11.3785 71.6267 11.2617 71.6668 11.1349C71.7069 11.0082 71.7202 10.8744 71.7056 10.7421H71.708ZM63.9904 10.1145L64.0193 9.98312C64.0397 9.88741 64.0675 9.79346 64.1025 9.70214C64.3244 9.13652 64.5704 8.7631 64.9129 8.47116C65.4293 8.04286 66.0823 7.81812 66.7506 7.83865C67.4147 7.82172 68.062 8.05061 68.5703 8.48211C69.0033 8.8407 69.3296 9.31301 69.5133 9.84689L69.5845 10.1267L63.9904 10.1145Z" fill="#2D2D2D"/>
<path d="M136 3.63478C136.005 3.48415 135.98 3.33407 135.926 3.19345C135.873 3.05283 135.791 2.92456 135.688 2.81625C135.584 2.70794 135.459 2.62182 135.322 2.563C135.184 2.50419 135.036 2.47388 134.887 2.47388C134.737 2.47388 134.59 2.50419 134.452 2.563C134.314 2.62182 134.19 2.70794 134.086 2.81625C133.982 2.92456 133.901 3.05283 133.847 3.19345C133.793 3.33407 133.768 3.48415 133.773 3.63478V7.05524C132.906 6.43821 131.871 6.10642 130.81 6.10525H130.748C130.066 6.10924 129.392 6.24863 128.764 6.51545C128.135 6.78227 127.565 7.17129 127.086 7.66032C126.607 8.14934 126.228 8.72878 125.971 9.36556C125.714 10.0023 125.583 10.684 125.587 11.3716C125.591 12.0592 125.729 12.7392 125.994 13.373C126.258 14.0067 126.644 14.5816 127.129 15.065C127.614 15.5484 128.188 15.9307 128.819 16.1901C129.451 16.4496 130.126 16.5811 130.808 16.5771H130.873C132.207 16.5606 133.483 16.0262 134.437 15.0849C135.39 14.1436 135.947 12.8679 135.992 11.523C135.998 11.4685 136.001 11.4137 136 11.3588V3.63478ZM130.809 14.3681C130.217 14.3678 129.639 14.191 129.146 13.8599C128.654 13.5288 128.27 13.0582 128.042 12.5073C127.814 11.9564 127.753 11.3499 127.866 10.7639C127.979 10.1779 128.261 9.63878 128.677 9.21424C129.093 8.78971 129.624 8.49875 130.204 8.37799C130.783 8.25723 131.385 8.31205 131.934 8.53556C132.483 8.75907 132.954 9.14128 133.288 9.63411C133.621 10.1269 133.803 10.7084 133.811 11.3053C133.817 11.7064 133.744 12.1047 133.596 12.477C133.448 12.8493 133.228 13.188 132.948 13.4733C132.669 13.7586 132.336 13.9847 131.968 14.1383C131.601 14.292 131.207 14.3701 130.809 14.3681V14.3681Z" fill="#2D2D2D"/>
<path d="M93.2859 7.60513C92.8109 7.11112 92.2435 6.717 91.6165 6.44557C90.9896 6.17415 90.3155 6.03081 89.6333 6.02384H89.5706C88.5098 6.02422 87.475 6.35516 86.6077 6.9714V3.5558C86.6126 3.40517 86.5875 3.25509 86.5337 3.11447C86.48 2.97385 86.3987 2.84558 86.2948 2.73727C86.1909 2.62896 86.0665 2.54284 85.929 2.48402C85.7914 2.42521 85.6435 2.3949 85.4941 2.3949C85.3447 2.3949 85.1968 2.42521 85.0593 2.48402C84.9217 2.54284 84.7973 2.62896 84.6934 2.73727C84.5895 2.84558 84.5082 2.97385 84.4545 3.11447C84.4007 3.25509 84.3756 3.40517 84.3805 3.5558V11.4246C84.3802 11.4898 84.3855 11.5549 84.3962 11.6192C84.4837 12.9319 85.0585 14.163 86.0059 15.0673C86.9533 15.9715 88.2037 16.4824 89.5079 16.4981H89.573C90.5954 16.5005 91.5958 16.198 92.4483 15.6285C93.3007 15.059 93.9673 14.2481 94.3641 13.2975C94.7609 12.347 94.8702 11.2993 94.6784 10.2863C94.4866 9.27322 94.0021 8.33999 93.2859 7.60392V7.60513ZM91.6664 13.4279C91.1076 13.9817 90.3551 14.2911 89.5718 14.2891C89.1755 14.2872 88.7834 14.2065 88.4181 14.0516C88.0527 13.8967 87.7212 13.6707 87.4426 13.3864C87.1639 13.1022 86.9436 12.7653 86.7941 12.3951C86.6446 12.0248 86.569 11.6285 86.5716 11.2287C86.5775 10.7311 86.705 10.2426 86.9428 9.80654C87.1805 9.37047 87.5213 9.00028 87.9347 8.72877C88.3482 8.45725 88.8217 8.29279 89.3133 8.24994C89.8048 8.20709 90.2992 8.28719 90.7528 8.48313C91.2063 8.67907 91.6049 8.98481 91.9133 9.37326C92.2218 9.76172 92.4304 10.2209 92.5209 10.7101C92.6114 11.1994 92.5808 11.7036 92.432 12.1781C92.2831 12.6526 92.0206 13.0827 91.6676 13.4304L91.6664 13.4279Z" fill="#2D2D2D"/>
<path d="M123.851 6.47508H123.504C121.396 6.47508 119.789 8.17801 119.789 10.303V15.2659C119.789 15.9349 120.22 16.509 120.884 16.509C121.203 16.509 121.51 16.3808 121.736 16.1527C121.962 15.9246 122.09 15.6152 122.09 15.2926V10.6813C122.09 10.2093 122.276 9.75689 122.607 9.42326C122.938 9.08963 123.387 8.90208 123.855 8.90175C124.175 8.90175 124.481 8.7736 124.708 8.54549C124.934 8.31737 125.061 8.00798 125.061 7.68537C125.061 7.36277 124.934 7.05338 124.708 6.82526C124.481 6.59715 124.175 6.46899 123.855 6.46899L123.851 6.47508Z" fill="#2D2D2D"/>
<path d="M115.779 10.2908V15.2536C115.779 15.9238 116.27 16.47 116.872 16.47C117.473 16.47 117.965 15.9263 117.965 15.2536V11.0522" fill="#2D2D2D"/>
<path d="M53.8828 15.5262V3.58377C53.8828 3.2673 53.7581 2.96379 53.5363 2.74C53.3144 2.51622 53.0135 2.3905 52.6998 2.3905C52.3861 2.3905 52.0852 2.51622 51.8633 2.74C51.6415 2.96379 51.5168 3.2673 51.5168 3.58377V15.5262C51.5168 15.8427 51.6415 16.1462 51.8633 16.37C52.0852 16.5938 52.3861 16.7195 52.6998 16.7195C53.0135 16.7195 53.3144 16.5938 53.5363 16.37C53.7581 16.1462 53.8828 15.8427 53.8828 15.5262V15.5262Z" fill="#2D2D2D"/>
<path d="M60.1497 14.5665L56.5936 11.1363L60.0038 7.82289C60.1117 7.72275 60.1979 7.6011 60.2568 7.46563C60.3158 7.33017 60.3462 7.18384 60.3462 7.03589C60.3462 6.88795 60.3158 6.74162 60.2568 6.60616C60.1979 6.47069 60.1117 6.34904 60.0038 6.2489C59.7731 6.03259 59.4698 5.91235 59.1548 5.91235C58.8399 5.91235 58.5366 6.03259 58.3059 6.2489L54.1336 10.3019L53.9732 10.4746C53.8873 10.5602 53.8216 10.6643 53.7811 10.7791C53.7406 10.8939 53.7263 11.0164 53.7392 11.1375C53.7397 11.2853 53.7703 11.4314 53.829 11.5667C53.8877 11.7021 53.9733 11.8239 54.0805 11.9245L58.4506 16.1405C58.6811 16.3567 58.9842 16.4769 59.2989 16.4769C59.6137 16.4769 59.9168 16.3567 60.1473 16.1405C60.2545 16.0401 60.3401 15.9184 60.3986 15.7831C60.4572 15.6478 60.4874 15.5017 60.4874 15.3541C60.4874 15.2065 60.4572 15.0604 60.3986 14.9251C60.3401 14.7898 60.2545 14.6681 60.1473 14.5677L60.1497 14.5665Z" fill="#2D2D2D"/>
<path d="M3.50476 13.8257L8.80097 10.6327C8.83376 10.6095 8.86517 10.5843 8.89503 10.5573C9.12588 10.3532 9.28639 10.0803 9.35337 9.77813C9.42035 9.47594 9.39033 9.1601 9.26765 8.87626C8.67797 7.55162 6.61472 6.65393 6.61472 6.65393C6.76014 6.73084 6.88301 6.8449 6.97104 6.98471C7.05907 7.12452 7.10918 7.28519 7.11636 7.45066C7.1236 7.72678 6.99577 8.12697 6.38439 8.48945L3.55179 10.134L3.50476 13.8257Z" fill="#FF1C7C"/>
<path d="M35.9019 16.4481C35.0855 16.6914 34.1051 16.1696 33.7711 15.1746C32.8124 12.3197 31.2725 7.60262 31.0398 6.9105C30.9931 6.76306 30.923 6.62422 30.8324 6.49936C30.756 6.39233 30.6552 6.30547 30.5385 6.24617C30.4218 6.18687 30.2926 6.15689 30.1619 6.15877C29.9207 6.15877 29.5348 6.26703 29.29 6.9032C29.3443 6.67574 30.8926 1.68128 32.5266 3.27717C33.4045 4.13593 33.9061 5.41313 34.081 5.9228C34.8576 8.19743 36.1599 11.9621 36.9148 14.2392C37.2874 15.3643 36.6411 16.2316 35.9019 16.4481Z" fill="#FF1C7C"/>
<path d="M32.5266 3.27727C30.5284 2.65813 29.3443 6.67584 29.29 6.9033C29.2893 6.9065 29.2893 6.90983 29.29 6.91303L29.2768 6.95074C29.0585 7.54798 28.2433 10.0562 27.4764 12.5583C27.1279 13.6956 26.8734 14.4923 26.5225 15.3559C26.1065 16.3765 25.3034 16.7134 24.4508 16.4653C23.5983 16.2171 23.0894 15.317 23.4331 14.2588C24.1735 11.9768 25.4758 8.21213 26.2464 5.93628C26.42 5.4254 26.9808 4.07522 27.7983 3.28579C28.4504 2.69497 29.2951 2.36679 30.1715 2.36377C31.0415 2.36389 31.8806 2.68937 32.5266 3.27727Z" fill="#FF1C7C"/>
<path d="M18.4395 16.5941C16.9816 16.5941 16.3738 15.6466 16.3738 12.9377L16.3545 8.39693V4.12135H16.3461C16.3237 3.65657 16.1244 3.21843 15.7897 2.89823C15.455 2.57803 15.0107 2.40049 14.5493 2.40261C14.1802 2.41025 13.8231 2.53611 13.5296 2.76199C13.2361 2.98787 13.0214 3.30206 12.9166 3.65913C12.9038 3.69623 12.8929 3.73399 12.884 3.77225C12.8744 3.81482 12.8659 3.8574 12.8587 3.90119C12.8476 3.97413 12.8403 4.04763 12.837 4.12135V4.12135V4.16393C12.837 4.26975 12.837 4.44613 12.837 4.60912C12.8261 5.62723 12.8177 11.7152 12.8153 11.9196C12.8081 12.9803 12.7948 13.9728 13.3809 14.9848C14.0887 16.2085 15.5104 16.5978 16.3955 16.5941H18.4395Z" fill="#FF1C7C"/>
<path d="M39.8391 10.6546C41.8252 13.8172 44.4468 13.434 43.9017 15.6113C44.1899 15.0031 44.2695 13.5179 44.2068 11.9379C44.1308 10.0111 43.0709 9.53793 42.2074 8.2656C41.1065 6.64416 39.8186 4.22965 39.3483 3.45968C39.2857 3.35957 39.2172 3.26331 39.1433 3.1714C38.825 2.7481 38.4487 2.49022 37.9917 2.44157C37.7686 2.41734 37.543 2.44113 37.3297 2.51137C37.1165 2.58162 36.9204 2.69671 36.7545 2.84906H36.7472C36.6748 2.91974 36.6086 2.99666 36.5495 3.07895C36.5217 3.11909 36.494 3.16288 36.4699 3.20059C36.4458 3.2383 36.4385 3.26263 36.4204 3.29303C36.4024 3.32344 36.4036 3.33074 36.3951 3.34534C36.2118 3.75769 36.2745 4.45468 36.5085 4.88893C36.5555 4.9911 37.2983 6.60645 39.8391 10.6546Z" fill="#FF1C7C"/>
<path d="M10.722 7.58687C10.6436 8.8215 10.1396 9.70094 8.83964 10.6084C10.5689 8.66215 6.6148 6.65391 6.6148 6.65391C5.94674 6.26832 5.16051 5.8365 5.00133 5.75136C4.84216 5.66621 4.3984 5.52998 4.02578 5.7173C3.86892 5.79293 3.73733 5.91308 3.64716 6.06303C3.55698 6.21297 3.51213 6.38619 3.51811 6.56147L3.55669 5.38888C3.56568 5.01519 3.62118 4.64413 3.7219 4.2844C4.29228 2.33819 5.63683 2.50849 5.77189 2.58147L5.81892 2.60215C6.08662 2.7396 7.59517 3.52538 8.9337 4.39023C9.38711 4.67851 10.8342 5.72095 10.722 7.58687Z" fill="#FF1C7C"/>
<path d="M4.58113 2.12772L4.53289 2.11677C4.4521 2.09974 4.3701 2.08271 4.28327 2.06933C4.19645 2.05595 4.11325 2.04379 4.02522 2.03406L3.9396 2.02433C3.79128 2.00973 3.63813 2 3.47654 2C2.59866 2 1.25652 2.38316 0.565556 3.59589C0.0832058 4.44736 0.0180886 5.61143 0.0192945 6.58697C0.0192945 6.75483 0.0192945 6.91783 0.0192945 7.07352C0.0192945 7.27423 0 14.9326 0 14.9411C0.0119979 15.4029 0.202307 15.8418 0.53038 16.1641C0.858453 16.4865 1.29835 16.6669 1.75636 16.6669C2.21436 16.6669 2.65427 16.4865 2.98234 16.1641C3.31041 15.8418 3.50072 15.4029 3.51272 14.9411C3.51272 14.9301 3.5694 10.14 3.5694 10.14L3.53201 6.98716V6.95189C3.53201 6.81322 3.53201 6.6855 3.53201 6.57359C3.56095 2.26274 5.8063 2.61062 5.99683 2.69455C5.55283 2.44123 5.07649 2.25051 4.58113 2.12772V2.12772Z" fill="#FF1C7C"/>
</svg>
