<svg width="12" height="12" viewBox="0 0 12 12" fill="none" xmlns="http://www.w3.org/2000/svg">
<g clip-path="url(#clip0_428_90)">
<path d="M12 6.00005C12 7.18674 11.6481 8.34678 10.9888 9.33347C10.3295 10.3202 9.39246 11.0892 8.29611 11.5433C7.19975 11.9975 5.99335 12.1163 4.82946 11.8848C3.66557 11.6533 2.59648 11.0818 1.75736 10.2427C0.918248 9.40358 0.346802 8.33448 0.115291 7.17059C-0.11622 6.00671 0.0025997 4.80031 0.456726 3.70395C0.910851 2.60759 1.67989 1.67052 2.66658 1.01123C3.65328 0.351943 4.81332 4.97774e-05 6 4.97774e-05C6.79012 -0.00780947 7.57387 0.142019 8.30537 0.440764C9.03687 0.739509 9.70144 1.18117 10.2602 1.73989C10.8189 2.29862 11.2605 2.96318 11.5593 3.69468C11.858 4.42619 12.0079 5.20993 12 6.00005Z" fill="#AAABB3"/>
<path d="M9.72003 5.88004C9.60929 5.7762 9.46925 5.70898 9.31897 5.68751C9.16868 5.66604 9.01542 5.69136 8.88003 5.76004L6.60003 7.68004V2.64004C6.60003 2.48091 6.53682 2.3283 6.4243 2.21577C6.31178 2.10325 6.15916 2.04004 6.00003 2.04004C5.8409 2.04004 5.68829 2.10325 5.57577 2.21577C5.46325 2.3283 5.40003 2.48091 5.40003 2.64004V7.68004L3.12003 5.76004C3.057 5.71276 2.98527 5.67837 2.90894 5.65881C2.83262 5.63926 2.75318 5.63493 2.67518 5.64607C2.59718 5.65721 2.52214 5.68361 2.45434 5.72375C2.38654 5.7639 2.32731 5.817 2.28003 5.88004C2.23276 5.94307 2.19836 6.0148 2.17881 6.09113C2.15925 6.16746 2.15492 6.24689 2.16606 6.32489C2.17721 6.40289 2.2036 6.47793 2.24375 6.54573C2.28389 6.61353 2.337 6.67276 2.40003 6.72004L5.64003 9.48004C5.74389 9.55793 5.87021 9.60004 6.00003 9.60004C6.12986 9.60004 6.25618 9.55793 6.36003 9.48004L9.60003 6.72004C9.70387 6.60929 9.77109 6.46926 9.79256 6.31897C9.81403 6.16868 9.78871 6.01543 9.72003 5.88004Z" fill="white"/>
</g>
<defs>
<clipPath id="clip0_428_90">
<rect width="12" height="12" fill="white"/>
</clipPath>
</defs>
</svg>
