<svg width="24" height="25" viewBox="0 0 24 25" fill="none" xmlns="http://www.w3.org/2000/svg">
<g clip-path="url(#clip0_428_4)">
<path d="M22.9747 15.4872C22.4539 14.9823 22.0612 14.3599 21.8294 13.6721C21.6475 13.044 21.5691 12.3905 21.5975 11.7371V10.9167C21.6168 10.2395 21.5938 9.56175 21.5286 8.88742C21.3802 7.47387 20.9112 6.11299 20.1574 4.90876C19.4036 3.70452 18.3849 2.68879 17.1793 1.93916C15.9877 1.1682 14.632 0.68823 13.2214 0.537894C12.5652 0.461652 11.9023 0.461652 11.2461 0.537894C9.96648 0.676062 8.73092 1.08569 7.6217 1.7395C6.35152 2.44318 5.26652 3.43916 4.45613 4.64533C3.64574 5.8515 3.13318 7.23331 2.96069 8.67686C2.84802 9.71103 2.8141 10.7523 2.85921 11.7916C2.89475 12.5059 2.77839 13.2196 2.51784 13.8855C2.25728 14.5514 1.85848 15.1543 1.34783 15.6542C0.916397 16.0659 0.627486 16.6049 0.523178 17.1926C0.418871 17.7802 0.504614 18.3859 0.767921 18.9214C0.98536 19.4729 1.36792 19.9434 1.86308 20.2684C2.35824 20.5934 2.9417 20.7569 3.53335 20.7365C4.25824 20.7365 4.98312 20.7365 5.708 20.7365H7.46222C7.72804 21.7787 8.32012 22.7083 9.15171 23.389C9.9833 24.0697 11.0107 24.4658 12.0834 24.5192H12.2247C13.3256 24.4983 14.3891 24.1152 15.2511 23.429C16.1131 22.7428 16.7257 21.7915 16.9944 20.722H20.8689C21.4797 20.7333 22.0795 20.5585 22.5889 20.2208C23.0983 19.8831 23.4933 19.3984 23.7216 18.8309C23.9499 18.2634 24.0007 17.6398 23.8674 17.0427C23.734 16.4456 23.4227 15.9031 22.9747 15.4872ZM21.0937 16.7214C21.2165 16.8699 21.3472 17.0116 21.4851 17.1462C21.608 17.2521 21.6919 17.3961 21.7234 17.5554C21.755 17.7146 21.7323 17.8799 21.6591 18.0247C21.604 18.1786 21.5002 18.3102 21.3634 18.3994C21.2266 18.4886 21.0643 18.5304 20.9016 18.5184H3.58409C3.46075 18.523 3.33787 18.5008 3.22398 18.4531C3.11008 18.4055 3.00788 18.3336 2.92445 18.2425C2.84825 18.1557 2.79217 18.053 2.76021 17.942C2.72826 17.8309 2.72122 17.7141 2.7396 17.6C2.77426 17.4238 2.85852 17.2613 2.98244 17.1317C4.11291 16.0292 4.82968 14.5702 5.01212 13.0005C5.0453 12.6591 5.05861 12.316 5.05198 11.9731C5.05198 11.7589 5.05198 11.5484 5.05198 11.3378C5.05198 11.051 5.07011 10.7642 5.07735 10.4775C5.07234 9.79571 5.12203 9.11467 5.22596 8.4409C5.56342 6.77272 6.48414 5.2799 7.82248 4.231C9.16081 3.1821 10.8289 2.64597 12.5267 2.71904C14.2245 2.79212 15.8405 3.46962 17.0841 4.62965C18.3276 5.78969 19.1171 7.35612 19.3104 9.04715C19.3865 9.8713 19.4083 10.6996 19.3757 11.5266V11.9586C19.3255 13.7023 19.9367 15.4002 21.0864 16.7106L21.0937 16.7214ZM14.6386 20.7546C14.432 21.1943 14.1123 21.571 13.7123 21.846C13.3122 22.121 12.8463 22.2843 12.3624 22.3193C11.8346 22.3373 11.3131 22.2001 10.8622 21.9246C10.4113 21.6492 10.0509 21.2475 9.82534 20.7692L14.6386 20.7546Z" fill="#919299"/>
</g>
<defs>
<clipPath id="clip0_428_4">
<rect width="24" height="25" fill="white"/>
</clipPath>
</defs>
</svg>
