<svg width="25" height="26" viewBox="0 0 25 26" fill="none" xmlns="http://www.w3.org/2000/svg">
<path d="M23.932 16.1067C23.3895 15.5816 22.9805 14.9344 22.739 14.219C22.5495 13.5658 22.4679 12.8861 22.4974 12.2067V11.3534C22.5175 10.6491 22.4936 9.94428 22.4256 9.24297C22.2711 7.77288 21.7825 6.35757 20.9973 5.10517C20.2121 3.85276 19.151 2.7964 17.8951 2.01679C16.6539 1.21499 15.2417 0.715818 13.7723 0.559469C13.0888 0.480177 12.3983 0.480177 11.7147 0.559469C10.3818 0.703163 9.09473 1.12917 7.93929 1.80914C6.61619 2.54097 5.48598 3.57678 4.64182 4.8312C3.79767 6.08562 3.26375 7.52271 3.08408 9.024C2.96671 10.0995 2.93137 11.1824 2.97836 12.2633C3.01539 13.0062 2.89418 13.7485 2.62277 14.441C2.35136 15.1335 1.93594 15.7605 1.40401 16.2804C0.9546 16.7086 0.653652 17.2691 0.544998 17.8803C0.436344 18.4915 0.52566 19.1214 0.799938 19.6783C1.02644 20.2518 1.42494 20.7412 1.94073 21.0792C2.45652 21.4172 3.06429 21.5873 3.6806 21.566C4.43568 21.566 5.19077 21.566 5.94586 21.566H7.77317C8.05006 22.6499 8.66681 23.6167 9.53305 24.3246C10.3993 25.0326 11.4695 25.4445 12.5868 25.5H12.7341C13.8809 25.4783 14.9887 25.0799 15.8866 24.3662C16.7845 23.6525 17.4226 22.6632 17.7026 21.5509H21.7385C22.3747 21.5626 22.9995 21.3809 23.5301 21.0297C24.0608 20.6785 24.4722 20.1744 24.71 19.5842C24.9479 18.994 25.0008 18.3454 24.8619 17.7244C24.7229 17.1035 24.3987 16.5393 23.932 16.1067Z" fill="#FF417D"/>
</svg>
